<svg xmlns="http://www.w3.org/2000/svg" xmlns:xlink="http://www.w3.org/1999/xlink" width="250" height="48.327" viewBox="0 0 250 48.327">
  <defs>
    <clipPath id="clip-path">
      <rect id="Прямоугольник_29" data-name="Прямоугольник 29" width="250" height="48.327" fill="none"/>
    </clipPath>
  </defs>
  <g id="Logo" transform="translate(0 0)">
    <g id="Сгруппировать_131" data-name="Сгруппировать 131" transform="translate(0 0)" clip-path="url(#clip-path)">
      <path id="Контур_185" data-name="Контур 185" d="M23.65,47.274A23.637,23.637,0,1,0,0,23.636,23.644,23.644,0,0,0,23.65,47.274" transform="translate(0 0)" fill="#fc3f1d" fill-rule="evenodd"/>
      <path id="Контур_186" data-name="Контур 186" d="M20.209,8.451H18.04c-4.041,0-6.11,2.069-6.11,5.023,0,3.349,1.479,4.925,4.434,6.994l2.465,1.674-7.1,10.638H6.413l6.406-9.457C9.172,20.665,7.1,18.1,7.1,13.869c0-5.418,3.745-9.063,10.938-9.063h7.1V32.877H20.209Z" transform="translate(6.596 4.943)" fill="#fff" fill-rule="evenodd"/>
      <path id="Контур_187" data-name="Контур 187" d="M34.29,45.815V38.388H52.168v7.426h5.793V33.571H54.63V2.792H33.877l-.511,14.646c-.258,8.451-.927,13.415-2.564,16.133H28.5V45.815Zm4.5-27.559L39.159,7.61h9.272V33.571H36.646c1.075-2.461,1.893-6.864,2.148-15.315m32.332-6.144c-6.71,0-11.372,4.765-11.372,13.423,0,8.6,4.662,13.366,11.372,13.366s11.382-4.767,11.382-13.425c0-8.6-4.66-13.364-11.382-13.364m0,21.973c-3.38,0-5.065-2.611-5.065-8.55,0-6,1.686-8.607,5.065-8.607S76.2,19.535,76.2,25.475c0,6-1.684,8.609-5.075,8.609M97.675,38.9c2.818,0,4.818-.511,6.307-1.586V32.339a9.9,9.9,0,0,1-5.952,1.745c-4.357,0-6.15-3.379-6.15-8.706,0-5.584,2.209-8.451,6.209-8.451a12.079,12.079,0,0,1,5.893,1.584V13.34a14.215,14.215,0,0,0-6.562-1.229c-7.785,0-11.836,5.584-11.836,13.423,0,8.6,3.941,13.366,12.092,13.366m29.308-21.462V12.622H106.544v4.816h7.175v20.95h6.09V17.438Zm21.326,3.377c0-6.244-3.185-8.6-9.639-8.6a18.255,18.255,0,0,0-9.065,2.353v5.073a15.923,15.923,0,0,1,8.347-2.56c2.925,0,4.256,1.022,4.256,3.781V22.3h-.976c-9.323,0-13.479,3.073-13.479,8.293s3.183,8.144,7.893,8.144c3.586,0,5.124-1.17,6.307-2.4h.256a7.907,7.907,0,0,0,.465,2.049h5.942c-.207-2.1-.3-4.207-.3-6.3Zm-6.1,11.427a5.059,5.059,0,0,1-4.355,2.049,3.505,3.505,0,0,1-3.844-3.842c0-3.022,2.1-4.1,7.323-4.1h.876Zm21.157,6.146c6.051,0,9.639-2.562,9.639-7.477,0-3.388-2.051-5.327-5.481-5.948a5.657,5.657,0,0,0,4.505-5.781c0-4.4-2.919-6.56-8.554-6.56H153.226V38.388ZM162.6,17.231c2.207,0,3.438.927,3.438,2.866,0,1.793-1.331,2.876-3.637,2.876h-3.075V17.231Zm.107,10.2c2.611,0,3.99.925,3.99,3.073,0,2.353-1.536,3.278-3.99,3.278h-3.382V27.426ZM192.22,38.388h6.917l-9.786-13.879,8.6-11.887h-6.148l-8.6,11.887V12.622h-6.1V38.388h6.1V25.732Zm27.671-17.573c0-6.244-3.175-8.6-9.639-8.6a18.294,18.294,0,0,0-9.065,2.353v5.073a15.936,15.936,0,0,1,8.357-2.56c2.917,0,4.248,1.022,4.248,3.781V22.3h-.976c-9.323,0-13.471,3.073-13.471,8.293s3.173,8.144,7.893,8.144c3.588,0,5.124-1.17,6.3-2.4h.258a7.908,7.908,0,0,0,.462,2.049H220.2c-.207-2.1-.306-4.207-.306-6.3Zm-6.1,11.427a5.048,5.048,0,0,1-4.355,2.049,3.5,3.5,0,0,1-3.844-3.842c0-3.022,2.1-4.1,7.331-4.1h.868Z" transform="translate(29.309 2.871)" fill-rule="evenodd"/>
    </g>
  </g>
</svg>
